<svg xmlns="http://www.w3.org/2000/svg" width="1080" height="500" viewBox="0 0 1080 500">
<rect width="100%" height="100%" fill="#ffffff"/>
<text x="40" y="38" font-family="Segoe UI, Arial, sans-serif" font-size="24" font-weight="700" fill="#17212b">Native AVX2 kernel versus independent compiler oracle</text>
<text x="40" y="62" font-family="Segoe UI, Arial, sans-serif" font-size="13" fill="#536273">Negative values mean the SmartParallel Native Sequential kernel was faster; the release gate allows +10% or +0.5 µs.</text>
<line x1="540" y1="83" x2="540" y2="429" stroke="#243746" stroke-width="1.5"/>
<line x1="240.0" y1="87" x2="240.0" y2="429" stroke="#e5e9ee" stroke-width="1"/>
<text x="240.0" y="472" text-anchor="middle" font-family="Segoe UI, Arial, sans-serif" font-size="12" fill="#657384">-10%</text>
<line x1="390.0" y1="87" x2="390.0" y2="429" stroke="#e5e9ee" stroke-width="1"/>
<text x="390.0" y="472" text-anchor="middle" font-family="Segoe UI, Arial, sans-serif" font-size="12" fill="#657384">-5%</text>
<line x1="540.0" y1="87" x2="540.0" y2="429" stroke="#e5e9ee" stroke-width="1"/>
<text x="540.0" y="472" text-anchor="middle" font-family="Segoe UI, Arial, sans-serif" font-size="12" fill="#657384">+0%</text>
<line x1="690.0" y1="87" x2="690.0" y2="429" stroke="#e5e9ee" stroke-width="1"/>
<text x="690.0" y="472" text-anchor="middle" font-family="Segoe UI, Arial, sans-serif" font-size="12" fill="#657384">+5%</text>
<line x1="840.0" y1="87" x2="840.0" y2="429" stroke="#e5e9ee" stroke-width="1"/>
<text x="840.0" y="472" text-anchor="middle" font-family="Segoe UI, Arial, sans-serif" font-size="12" fill="#657384">+10%</text>
<text x="160" y="117" font-family="Segoe UI, Arial, sans-serif" font-size="14" fill="#263442">320×240</text>
<rect x="193.8" y="100" width="346.2" height="25" rx="4" fill="#3f7f63"/>
<text x="185.8" y="118" text-anchor="end" font-family="Segoe UI, Arial, sans-serif" font-size="12" fill="#263442">-11.54%</text>
<text x="160" y="175" font-family="Segoe UI, Arial, sans-serif" font-size="14" fill="#263442">640×480</text>
<rect x="237.0" y="158" width="303.0" height="25" rx="4" fill="#3f7f63"/>
<text x="229.0" y="176" text-anchor="end" font-family="Segoe UI, Arial, sans-serif" font-size="12" fill="#263442">-10.10%</text>
<text x="160" y="233" font-family="Segoe UI, Arial, sans-serif" font-size="14" fill="#263442">1920×1080</text>
<rect x="353.3" y="216" width="186.7" height="25" rx="4" fill="#3f7f63"/>
<text x="345.3" y="234" text-anchor="end" font-family="Segoe UI, Arial, sans-serif" font-size="12" fill="#263442">-6.22%</text>
<text x="160" y="291" font-family="Segoe UI, Arial, sans-serif" font-size="14" fill="#263442">1920×1080 ROI</text>
<rect x="317.8" y="274" width="222.2" height="25" rx="4" fill="#3f7f63"/>
<text x="309.8" y="292" text-anchor="end" font-family="Segoe UI, Arial, sans-serif" font-size="12" fill="#263442">-7.41%</text>
<text x="160" y="349" font-family="Segoe UI, Arial, sans-serif" font-size="14" fill="#263442">3840×2160</text>
<rect x="502.3" y="332" width="37.7" height="25" rx="4" fill="#3f7f63"/>
<text x="494.3" y="350" text-anchor="end" font-family="Segoe UI, Arial, sans-serif" font-size="12" fill="#263442">-1.26%</text>
<text x="160" y="407" font-family="Segoe UI, Arial, sans-serif" font-size="14" fill="#263442">7680×4320</text>
<rect x="519.6" y="390" width="20.4" height="25" rx="4" fill="#3f7f63"/>
<text x="511.6" y="408" text-anchor="end" font-family="Segoe UI, Arial, sans-serif" font-size="12" fill="#263442">-0.68%</text>
</svg>
